<?xml version="1.0" encoding="UTF-8"?>
<svg version="1.1" viewBox="0 0 2048 685" width="490" height="164" xmlns="http://www.w3.org/2000/svg">
<path transform="translate(339,198)" d="m0 0h84l5 3 5 6v66l-6 7-12 9-7 7-9 14-5 15-2 12v10l3 15 6 14 9 12 10 9 14 8 12 4 15 2 13-1 15-4 13-7 10-8 8-9 6-10 5-15 1-4v-25l-4-13-6-12-8-10-10-9-10-8-3-5v-61l4-6 6-5 2-1h82l9 4 7 7 5 10 1 6v233l-3 10-6 8-8 6-6 2-24 1h-195l-26-1-8-4-6-5-6-10-1-3-1-11v-223l2-11 5-9 8-7z" fill="#9C1416"/>
<path transform="translate(21,198)" d="m0 0h246l7 3 8 7 5 8 2 9v73l-2 7-7 6-2 1h-66l-5-5-9-11-5-6-12-9-13-6-11-3-16-1-15 2-13 5-11 7-10 9-8 11-6 13-3 10-1 8v11l3 15 5 12 7 11 5 6 12 9 14 7 11 3 7 1h13l18-4 14-7 10-8 8-9 7-9 5-4 3-1h56l8 3 5 4 3 5 1 6v71l-3 10-6 8-8 6-6 2-27 1h-185l-33-1-8-4-6-5-7-11v-246l7-10 7-7z" fill="#9C1416"/>
<path transform="translate(657,198)" d="m0 0h244l9 3 9 8 5 10v83l-4 6-6 4h-66l-5-5-11-13-8-8-13-8-14-5-13-2-18 1-13 4-11 6-9 7-7 7-9 14-5 13-2 11v15l4 16 8 16 9 11 12 9 13 6 11 3 7 1h13l15-3 12-5 11-8 7-6 10-13 7-6 3-1h43l17 1 5 3 5 5 2 3v82l-5 10-9 8-9 3h-244l-8-4-6-5-5-7-2-6v-242l3-8 8-9z" fill="#9C1416"/>
<path transform="translate(982,355)" d="m0 0h54l14 3 12 5 11 8 9 9 8 14 4 16v18l-3 15-6 12-8 10-8 7-10 6-16 5-21 2h-39l-1-1zm12 11-1 3v105h42l13-3 11-6 10-9 6-7 5-11 2-9v-18l-3-11-6-12-9-10-11-7-11-4-7-1z" fill="#9B1316"/>
<path transform="translate(1102,198)" d="m0 0h10l6 5 10 14 39 54 16 21 8 12 1-106h11l1 1v54l-1 74-4 1-5-2-9-10-12-17-26-36-28-38-5-7-1 109h-11z" fill="#9B1316"/>
<path transform="translate(1667,353)" d="m0 0h15l10 2 12 5 11 7 10 10 7 11 5 12 2 9v21l-4 16-6 11-8 10-9 8-16 8-13 3h-21l-12-3-12-6-10-8-9-10-8-16-3-12v-23l3-12 8-15 11-12 9-7 12-6zm-2 11-14 4-10 6-11 11-8 16-2 8v22l3 11 5 10 9 10 9 7 11 5 9 2h15l12-3 11-6 10-9 6-8 5-11 2-9v-20l-3-12-5-10-8-10-13-9-11-4-6-1z" fill="#9C1416"/>
<path transform="translate(1479,198)" d="m0 0h59l13 4 8 6 6 8 4 10v16l-4 10-4 6-7 7-10 4 2 6 16 33 8 16v3h-11l-4-5-16-33-7-16v-2h-42l1 55-1 1h-11zm21 10-9 1-1 33v17l1 1h41l11-3 6-4 6-7 2-4v-15l-5-10-8-6-12-3z" fill="#9B1316"/>
<path transform="translate(1943,198)" d="m0 0h48l14 3 16 8 12 11 7 11 4 8 4 13v21l-6 18-7 11-6 7-10 8-13 6-12 3-10 1h-40l-1-1zm18 10-7 1v107l1 1 36-1 13-4 9-5 10-9 7-10 4-10 1-4v-22l-4-13-6-10-7-8-11-7-10-4-12-2z" fill="#9C1416"/>
<path transform="translate(1720,198)" d="m0 0h47l14 3 10 4 13 9 8 8 8 15 4 16v19l-4 16-7 13-9 10-10 7-11 5-12 3-10 1h-41zm13 10-2 1v108l37-1 13-4 10-6 10-9 6-9 4-11 1-4v-21l-4-13-7-12-10-9-14-7-15-3z" fill="#9C1416"/>
<path transform="translate(1106,355)" d="m0 0h95v10l-1 1h-82v48h56v10l-1 1h-55v49h83l1 10-23 1h-72z" fill="#9C1416"/>
<path transform="translate(1784,353)" d="m0 0h19l16 4 16 8 8 5-5 10-4-1-14-8-14-5-6-1h-15l-10 3-6 4-5 5-3 10 1 8 4 6 8 5 18 4 21 4 12 4 10 6 7 8 3 8v15l-4 11-9 10-7 5-13 4-5 1h-21l-12-3-14-7-11-9-5-6 6-7 4 1 10 9 12 7 9 3 6 1h14l9-2 10-6 6-7 2-5v-14l-4-7-6-4-13-4-29-5-12-4-10-6-6-8-3-8v-14l4-9 6-8 10-7 8-3z" fill="#9C1416"/>
<path transform="translate(1617,196)" d="m0 0h17l16 3 14 6 9 6 2 4-4 8-5-2-16-9-13-4-15-1-14 3-8 6-4 5-2 6v9l4 7 8 5 9 3 29 5 15 5 10 6 6 8 3 9v14l-4 10-7 9-8 6-10 4-10 2h-19l-12-3-16-8-13-11-1-3 6-8 5 3 7 7 10 6 11 4 5 1h18l11-4 8-6 4-5 2-5v-13l-3-6-6-5-12-4-32-6-12-4-8-5-7-8-4-11v-8l3-10 4-6 5-5 5-4 9-4z" fill="#9C1416"/>
<path transform="translate(1403,354)" d="m0 0h7l4 4 10 23 15 37 13 31 11 27 3 9h-11l-3-3-14-35-2-4-61-1-3 10-12 29-3 4h-7l-3-1 1-5 15-36 34-82 4-6zm2 16-5 12-12 29-8 19v2h51l-1-5-12-31-11-26z" fill="#9B1316"/>
<path transform="translate(1986,354)" d="m0 0h6l3 2 17 41 12 29 17 42 6 12 1 5h-12l-4-6-12-31-2-6-61 1-13 32-4 8-2 2h-8l-2-1 2-6 12-29 15-36 16-39 7-16 3-3zm1 15-5 12-17 41-3 7v3h51l-3-10-15-37-7-16z" fill="#9C1416"/>
<path transform="translate(1377,198)" d="m0 0h87v10h-75v36l-1 12h49l-1 11h-47v49h75l1 1v9l-1 1h-87z" fill="#9B1316"/>
<path transform="translate(1874,197)" d="m0 0h6l4 4 17 41 14 34 18 44 2 5-1 3-10-1-4-6-11-28-4-8-60-1-3 9-12 29-4 6-10-1 1-5 9-21 14-34 18-43 9-22 4-4zm1 15-5 11-21 51h52l-6-17-11-27-7-17z" fill="#9B1316"/>
<path transform="translate(981,198)" d="m0 0h10l2 1v74l2 17 7 14 9 8 10 4 4 1h17l11-4 9-7 6-9 3-8 1-6 1-85h12v71l-1 17-3 13-6 11-10 10-11 6-13 3h-17l-12-3-10-5-7-6-7-10-5-13-2-12z" fill="#9C1416"/>
<path transform="translate(1544,353)" d="m0 0h18l13 3 16 8 9 7 2 3-6 9-8-6-9-6-14-5-6-1h-16l-12 3-11 6-8 7-7 10-5 11-2 9v18l4 14 5 9 9 10 8 6 8 4 12 3h15l12-3 16-8 7-6 4 1 4 5-2 5-13 9-12 5-14 3h-21l-12-3-14-7-12-11-7-9-7-15-3-15v-14l4-16 8-15 9-11 11-8 12-6 7-2z" fill="#9C1416"/>
<path transform="translate(1246,197)" d="m0 0 12 1 4 8 15 37 16 38 12 30v2h2l3-10 15-37 17-40 10-25 3-3h11l-3 9-15 35-17 41-14 33-5 10-3 2-8-1-4-5-14-33-20-48-16-39z" fill="#9B1316"/>
<path transform="translate(1852,355)" d="m0 0h106v10l-1 1h-46l-1 119h-10l-1-1v-118h-47z" fill="#9C1416"/>
<path transform="translate(1241,355)" d="m0 0h12v32l-1 87h81v10l-23 1h-68l-1-2z" fill="#9C1416"/>
<path transform="translate(1221,198)" d="m0 0h11l1 3-1 126h-11l-1-2v-126z" fill="#9C1416"/>
<path transform="translate(1693,198)" d="m0 0h11v129h-11l-1-1v-127z" fill="#9C1416"/>
<path transform="translate(1411,366)" d="m0 0 6 2 2 1 16 39 15 36 13 32 3 9h-11l-3-3-14-35-2-6h-5l-4-8 4-1-14-36-8-19v-8z" fill="#8A0F18"/>
<path transform="translate(1988,355)" d="m0 0h6l6 13 16 39 11 26 1 9-3 4-5-2-6-10v-4h-2l-14-35-10-24-1-1-4 11-3 1v2l-6 4h-3v-5l4-4 3-13 3-6z" fill="#8A0F18"/>
<path transform="translate(1383,238)" d="m0 0 3 1 2 7v10h49l-1 11h-47v55l-1 2h-6l-3-5 1-44v-10l-1-3v-20z" fill="#890F18"/>
<path transform="translate(1490,443)" d="m0 0 3 4 5 9h4v-8l-1-5 3 4 6 9 9 9 11 6 8 3 6 1h15l12-3 16-8 7-6 4 1 4 5-2 5-13 9-12 5-14 3h-21l-12-3-14-7-12-11-7-9-5-10z" fill="#9C1416"/>
<path transform="translate(1355,198)" d="m0 0h11l-3 9-15 35-17 41-4 10-6 4-4-1-2-1v8l-4 2 1-7 19-46 15-36 6-15z" fill="#9B1316"/>
<path transform="translate(981,198)" d="m0 0h10l2 1v74l1 20 1 4v7l-6-1-2-3v-3l-3-1-3-16z" fill="#9C1416"/>
<path transform="translate(1701,361)" d="m0 0 7 1 10 8 7 7 7 11 5 12 1 4v16l-2 13-4 6-2-4-1-3v-13l-2-12-2-2-5-14-9-12-13-9-5-2v-5l1-1z" fill="#8A0F18"/>
<path transform="translate(1246,197)" d="m0 0 12 1 4 8 15 37 6 14 2 19-7-4-3-6-3-3-19-46-7-17z" fill="#8A0F18"/>
<path transform="translate(1948,234)" d="m0 0 2 1 3 14 1 63h-2l-2 8h-6l-1-6v-42l2-29 1-7z" fill="#890F18"/>
<path transform="translate(1888,226)" d="m0 0 5 1 3 3 14 34 6 14 1 10-1 2-4-2-8-8-3-8v-2h-2l-13-32v-8z" fill="#8B0F18"/>
<path transform="translate(1388,256)" d="m0 0h49l-1 11h-47v40h-1l-1-7v-36z" fill="#9C1416"/>
<path transform="translate(990,219)" d="m0 0h1l1 17 1 37 1 20 1 4v7l-6-1-4-9v-62l3-9z" fill="#890F18"/>
<path transform="translate(1338,247)" d="m0 0 4 3-1 5-3 11-11 27-6 4-4-1-2-1v8l-4 2 1-7 19-46 4-1 1-3z" fill="#8B0F18"/>
<path transform="translate(1494,396)" d="m0 0 4 2v31l4 17 1 2v8l-5 1-6-10-3-7v-21l2-18z" fill="#890F18"/>
<path transform="translate(1245,356)" d="m0 0h5l1 5v100l-2 4-2-2-1-10v-77l-1-10z" fill="#890F19"/>
<path transform="translate(1107,270)" d="m0 0 4 2 1 4v50l-5 1-3-3-1-3v-9l1-5-1-18 2-6 1-11z" fill="#890F19"/>
<path transform="translate(1502,378)" d="m0 0 7 1v4l-8 16-2 7h-1l-1-8-3-1-2 4-2 18v24l-2-2-3-15v-14l4-16 8-15z" fill="#9B1316"/>
<path transform="translate(1246,197)" d="m0 0 12 1 4 8 2 7-2 3h-2l5 24-1 3-13-31-5-12z" fill="#9C1416"/>
<path transform="translate(1444,459)" d="m0 0 3 4v2l7 2 1-8 2 3 9 21v2h-11l-3-3-8-20z" fill="#9C1416"/>
<path transform="translate(1488,279)" d="m0 0h2l1 47h-4l-3-9-1-5v-8l4-23z" fill="#890F18"/>
<path transform="translate(1614,420)" d="m0 0 3 4 4 7 3 11 2 5v6l-3 2-4-3-4-14-2-11z" fill="#8A0F18"/>
<path transform="translate(1668,277)" d="m0 0h5l2 3 1 9v15l-1 2h-7l-1-3 2-8v-8z" fill="#890F18"/>
<path transform="translate(1502,378)" d="m0 0 7 1v4l-3 6h-4l-3 2-4-1-1-4 4-6z" fill="#8A0F18"/>
<path transform="translate(1724,279)" d="m0 0 3 3-1 5-1 1v7l1 5-4 1-2-1v-19z" fill="#890F19"/>
<path transform="translate(1861,221)" d="m0 0 2 1v14l-4 2-3-2-1 3h-2l1-6 4-9z" fill="#8A0F18"/>
<path transform="translate(1343,228)" d="m0 0h5l1 4-4 11-1-4-1-1h-3-2l1-5 3-3z" fill="#890F18"/>
<path transform="translate(1701,288)" d="m0 0 2 2v14l-1 5-3-4-1-2v-7z" fill="#890F19"/>
<path transform="translate(1913,297)" d="m0 0 3 3 3 6 1 5h-4l-4-10z" fill="#8C0F18"/>
<path transform="translate(1558,306)" d="m0 0 5 5 2 3v3l-4-1-4-6z" fill="#8A0F18"/>
<path transform="translate(1386,214)" d="m0 0h1v14l-2 1-1-9v-4h2z" fill="#890F19"/>
<path transform="translate(1498,380)" d="m0 0 7 1v3l-6 1h-2l-2 1 2-5z" fill="#991316"/>
</svg>
